<svg xmlns="http://www.w3.org/2000/svg" xmlns:xlink="http://www.w3.org/1999/xlink" viewBox="0,0,256,256" width="96px" height="96px" fill-rule="nonzero"><defs><clipPath id="clip-1"><path d="M33.88235,222.11765v-188.23529h188.23529v188.23529zM94.95273,219.22909h66.09455c9.77455,0 18.15273,-8.37818 18.15273,-18.15273v-47.47636c0,-8.84364 -6.05091,-15.82545 -13.96364,-17.68727c0,-20.94545 -16.75636,-37.70182 -37.23636,-37.70182c-20.48,0 -37.23636,16.75636 -37.23636,37.70182c-7.91273,1.86182 -13.96364,9.30909 -13.96364,17.68727v47.01091c0,10.24 7.91273,18.61818 18.15273,18.61818zM128,126.13818c4.65455,0 8.84364,4.18909 9.30909,9.30909h-18.61818c0.46545,-5.12 4.65455,-9.30909 9.30909,-9.30909z" id="overlayBgMask" fill="none"></path></clipPath></defs><g transform="translate(-46.08,-46.08) scale(1.36,1.36)"><g fill="#a52a2a" fill-rule="nonzero" stroke="none" stroke-width="1" stroke-linecap="butt" stroke-linejoin="miter" stroke-miterlimit="10" stroke-dasharray="" stroke-dashoffset="0" font-family="none" font-weight="none" font-size="none" text-anchor="none" style="mix-blend-mode: normal"><path d="M33.88235,222.11765v-188.23529h188.23529v188.23529z" id="bgRectangle"></path></g><g fill="#1e1e1e" fill-rule="nonzero" stroke="#1e1e1e" stroke-width="1" stroke-linecap="butt" stroke-linejoin="round" stroke-miterlimit="10" stroke-dasharray="" stroke-dashoffset="0" font-family="none" font-weight="none" font-size="none" text-anchor="none" style="mix-blend-mode: normal"><path transform="translate(0,17.92) scale(5.12,5.12)" d="M35,13v6c0,3.23402 -1.59311,6.12561 -4,7.94922v4.55078c0,0.12593 0.02868,0.23264 0.28711,0.47656c0.25843,0.24393 0.73198,0.54421 1.3457,0.84961c1.22745,0.6108 2.99291,1.25683 4.79883,2.12109c1.80592,0.86426 3.67288,1.955 5.12305,3.56055c1.45017,1.60554 2.44531,3.75885 2.44531,6.49219v1h-40v-1c0,-2.71069 0.9969,-4.85585 2.44531,-6.46289c1.44841,-1.60704 3.31174,-2.709 5.11719,-3.58594c1.80545,-0.87693 3.57201,-1.53698 4.80273,-2.15234c0.61536,-0.30768 1.09159,-0.6091 1.35156,-0.85156c0.25997,-0.24246 0.2832,-0.3431 0.2832,-0.44727v-4.55078c-2.40688,-1.82361 -4,-4.7152 -4,-7.94922v-6c0,-5.53333 4.46667,-10 10,-10c5.53333,0 10,4.46667 10,10z" id="strokeMainSVG"></path></g><g clip-path="url(#clip-1)" fill="none" fill-rule="nonzero" stroke="none" stroke-width="1" stroke-linecap="butt" stroke-linejoin="miter" stroke-miterlimit="10" stroke-dasharray="" stroke-dashoffset="0" font-family="none" font-weight="none" font-size="none" text-anchor="none" style="mix-blend-mode: normal"><g transform="translate(0,17.92) scale(5.12,5.12)" fill="#000000"><path d="M25,3c-5.53333,0 -10,4.46667 -10,10v6c0,3.23402 1.59312,6.12561 4,7.94922v4.55078c0,0.10417 -0.02323,0.2048 -0.2832,0.44727c-0.25997,0.24246 -0.7362,0.54388 -1.35156,0.85156c-1.23072,0.61536 -2.99728,1.27541 -4.80273,2.15234c-1.80545,0.87693 -3.66878,1.97889 -5.11719,3.58594c-1.44841,1.60704 -2.44531,3.7522 -2.44531,6.46289v1h40v-1c0,-2.73333 -0.99515,-4.88664 -2.44531,-6.49219c-1.45017,-1.60554 -3.31713,-2.69629 -5.12305,-3.56055c-1.80592,-0.86426 -3.57138,-1.51029 -4.79883,-2.12109c-0.61373,-0.3054 -1.08727,-0.60568 -1.3457,-0.84961c-0.25843,-0.24393 -0.28711,-0.35064 -0.28711,-0.47656v-4.55078c2.40689,-1.82361 4,-4.7152 4,-7.94922v-6c0,-5.53333 -4.46667,-10 -10,-10zM25,5c4.46667,0 8,3.53333 8,8v6c0,2.75591 -1.43204,5.25287 -3.55469,6.66797l-0.44531,0.29688v5.53516c0,0.77407 0.40882,1.45291 0.91602,1.93164c0.5072,0.47873 1.1274,0.83782 1.82617,1.18555c1.39755,0.69544 3.13209,1.32403 4.82617,2.13477c1.69408,0.81074 3.32712,1.795 4.50195,3.0957c0.97488,1.07933 1.5468,2.45464 1.75195,4.15234h-35.64258c0.20631,-1.67658 0.77542,-3.04369 1.75,-4.125c1.17659,-1.30546 2.81326,-2.30193 4.50781,-3.125c1.69455,-0.82307 3.42799,-1.46497 4.82227,-2.16211c0.69714,-0.34857 1.31466,-0.70613 1.82031,-1.17773c0.50566,-0.4716 0.91992,-1.13932 0.91992,-1.91016v-5.53516l-0.44531,-0.29687c-2.12265,-1.4151 -3.55469,-3.91205 -3.55469,-6.66797v-6c0,-4.46667 3.53333,-8 8,-8z"></path></g></g><g fill="none" fill-rule="nonzero" stroke="none" stroke-width="none" stroke-linecap="butt" stroke-linejoin="none" stroke-miterlimit="10" stroke-dasharray="" stroke-dashoffset="0" font-family="none" font-weight="none" font-size="none" text-anchor="none" style="mix-blend-mode: normal"><path d="M169.89091,153.6v47.47636c0,4.65455 -4.18909,8.84364 -8.84364,8.84364h-66.09455c-5.12,0 -8.84364,-4.18909 -8.84364,-9.30909v-47.01091c0,-4.65455 3.72364,-8.84364 8.84364,-8.84364h5.12v-8.37818c0,-15.82545 12.56727,-28.85818 27.92727,-28.85818c15.36,0 27.92727,13.03273 27.92727,28.85818v8.37818h5.12c5.12,0 8.84364,4.18909 8.84364,8.84364z" id="strokeOverlay" fill="#1e1e1e" stroke="#1e1e1e" stroke-width="5.12" stroke-linejoin="round"></path><g transform="translate(86.10909,107.52) scale(4.65455,4.65455)" id="overlay" fill="#ffffff" stroke="none" stroke-width="1" stroke-linejoin="miter"><g id="Слой_2" font-family="Inter, apple-system, BlinkMacSystemFont, &quot;Helvetica Neue&quot;, &quot;Segoe UI&quot;, &quot;Fira Sans&quot;, Roboto, Oxygen, Ubuntu, &quot;Droid Sans&quot;, Arial, sans-serif" font-weight="400" font-size="16" text-anchor="start" visibility="hidden"></g><g id="Android_x5F_4" font-family="Inter, apple-system, BlinkMacSystemFont, &quot;Helvetica Neue&quot;, &quot;Segoe UI&quot;, &quot;Fira Sans&quot;, Roboto, Oxygen, Ubuntu, &quot;Droid Sans&quot;, Arial, sans-serif" font-weight="400" font-size="16" text-anchor="start" visibility="hidden"></g><g id="Android_x5F_5" font-family="Inter, apple-system, BlinkMacSystemFont, &quot;Helvetica Neue&quot;, &quot;Segoe UI&quot;, &quot;Fira Sans&quot;, Roboto, Oxygen, Ubuntu, &quot;Droid Sans&quot;, Arial, sans-serif" font-weight="400" font-size="16" text-anchor="start" visibility="hidden"></g><g id="Windows_x5F_8" font-family="Inter, apple-system, BlinkMacSystemFont, &quot;Helvetica Neue&quot;, &quot;Segoe UI&quot;, &quot;Fira Sans&quot;, Roboto, Oxygen, Ubuntu, &quot;Droid Sans&quot;, Arial, sans-serif" font-weight="400" font-size="16" text-anchor="start" visibility="hidden"></g><g id="Windows_x5F_10" font-family="Inter, apple-system, BlinkMacSystemFont, &quot;Helvetica Neue&quot;, &quot;Segoe UI&quot;, &quot;Fira Sans&quot;, Roboto, Oxygen, Ubuntu, &quot;Droid Sans&quot;, Arial, sans-serif" font-weight="400" font-size="16" text-anchor="start" visibility="hidden"></g><g id="Color" font-family="Inter, apple-system, BlinkMacSystemFont, &quot;Helvetica Neue&quot;, &quot;Segoe UI&quot;, &quot;Fira Sans&quot;, Roboto, Oxygen, Ubuntu, &quot;Droid Sans&quot;, Arial, sans-serif" font-weight="400" font-size="16" text-anchor="start" visibility="hidden"></g><g id="IOS" font-family="Inter, apple-system, BlinkMacSystemFont, &quot;Helvetica Neue&quot;, &quot;Segoe UI&quot;, &quot;Fira Sans&quot;, Roboto, Oxygen, Ubuntu, &quot;Droid Sans&quot;, Arial, sans-serif" font-weight="400" font-size="16" text-anchor="start" visibility="hidden"></g><g id="IOS_copy"><path d="M16.1,8h-1.1v-1.8c0,-3.4 -2.7,-6.2 -6,-6.2c-3.3,0 -6,2.8 -6,6.2v1.8h-1.1c-1.1,0 -1.9,0.9 -1.9,1.9v10.1c0,1.1 0.8,2 1.9,2h14.2c1,0 1.9,-0.9 1.9,-1.9v-10.2c0,-1 -0.8,-1.9 -1.9,-1.9zM5,6.2c0,-2.3 1.8,-4.2 4,-4.2c2.2,0 4,1.9 4,4.2v1.8h-8zM16,20h-14v-10h14zM9.9,15.4v1.3c0,0.5 -0.4,0.9 -0.9,0.9c-0.5,0 -0.9,-0.4 -0.9,-0.9v-1.3c-0.3,-0.3 -0.5,-0.6 -0.5,-1c0,-0.8 0.6,-1.4 1.4,-1.4c0.8,0 1.4,0.6 1.4,1.4c0,0.4 -0.2,0.7 -0.5,1z"></path></g></g></g></g></svg>